<?xml version="1.0" standalone="no"?><!DOCTYPE svg PUBLIC "-//W3C//DTD SVG 1.1//EN" "http://www.w3.org/Graphics/SVG/1.1/DTD/svg11.dtd" ><svg xmlns="http://www.w3.org/2000/svg"><metadata></metadata><defs><font id="fonteditor" horiz-adv-x="592"><font-face font-family="DIN Condensed" font-weight="700" font-stretch="normal" units-per-em="1000" panose-1="0 0 5 0 0 0 0 0 0 0" ascent="712" descent="-288" x-height="0" bbox="-22 -211 550 718" underline-thickness="50" underline-position="-100" unicode-range="U+0030-007a" /><missing-glyph horiz-adv-x="500" d="M0 0 L0 700 L500 700 L500 0 L0 0 ZM250 395 L420 650 L80 650 L250 395 ZM280 350 L450 95 L450 605 L280 350 ZM80 50 L420 50 L250 305 L80 50 ZM50 605 L50 95 L220 350 L50 605 Z" /><glyph glyph-name="zero" unicode="0" d="M34 565 Q34 601 46.5 629 Q59 657 80 677 Q101 697 128.5 707.5 Q156 718 186 718 Q216 718 243.5 707.5 Q271 697 292 677 Q313 657 325.5 629 Q338 601 338 565 L338 147 Q338 111 325.5 83 Q313 55 292 35 Q271 15 243.5 4.5 Q216 -6 186 -6 Q156 -6 128.5 4.5 Q101 15 80 35 Q59 55 46.5 83 Q34 111 34 147 L34 565 ZM136 147 Q136 125 150 110.5 Q164 96 186 96 Q208 96 222 110.5 Q236 125 236 147 L236 565 Q236 587 222 601.5 Q208 616 186 616 Q164 616 150 601.5 Q136 587 136 565 L136 147 Z" /><glyph glyph-name="one" unicode="1" d="M155 0 L155 604 L53 529 L53 637 L155 712 L257 712 L257 0 L155 0 Z" /><glyph glyph-name="two" unicode="2" d="M34 0 L34 96 L218 443 Q232 469 234 488.5 Q236 508 236 537 Q236 550 235.5 564.5 Q235 579 230 590 Q225 601 215 608.5 Q205 616 186 616 Q163 616 149.5 603 Q136 590 136 565 L136 507 L34 507 L34 563 Q34 595 46 623 Q58 651 79 672 Q99 693 127 705.5 Q155 718 187 718 Q227 718 255.5 703.5 Q284 689 303 664 Q321 639 329.5 607 Q338 575 338 539 Q338 513 337 495.5 Q336 478 333 462 Q330 446 323 430 Q316 414 304 391 L154 102 L338 102 L338 0 L34 0 Z" /><glyph glyph-name="three" unicode="3" d="M155 412 Q201 412 218.5 423 Q236 434 236 474 L236 566 Q236 588 222.5 602 Q209 616 186 616 Q159 616 147.5 599 Q136 582 136 566 L136 508 L34 508 L34 567 Q34 598 46 626 Q58 654 79 674 Q100 694 128 706 Q156 718 188 718 Q230 718 257.5 701.5 Q285 685 299 668 Q309 656 316.5 644 Q324 632 329 615 Q338 582 338 517 Q338 480 336.5 457 Q335 434 329 419 Q322 403 309.5 392 Q297 381 275 368 Q299 353 311.5 340 Q324 327 330 310 Q336 292 337 267.5 Q338 243 338 205 Q338 170 336.5 147 Q335 124 332 109 Q329 93 324 82 Q319 71 311 59 Q292 31 262.5 12.5 Q233 -6 185 -6 Q161 -6 134 2 Q107 10 85 28 Q63 46 48.5 75 Q34 104 34 146 L34 204 L136 204 L136 151 Q136 127 149.5 111.5 Q163 96 186 96 Q209 96 222.5 111.5 Q236 127 236 153 L236 255 Q236 297 220 310 Q211 318 195.5 320 Q180 322 155 322 L155 412 Z" /><glyph glyph-name="four" unicode="4" d="M212 0 L212 106 L9 106 L9 202 L156 712 L264 712 L111 202 L212 202 L212 405 L314 405 L314 202 L363 202 L363 106 L314 106 L314 0 L212 0 Z" /><glyph glyph-name="five" unicode="5" d="M338 712 L338 616 L136 616 L136 424 Q150 438 172 447.5 Q194 457 221 457 Q273 457 305.5 425.5 Q338 394 338 331 L338 147 Q338 111 325.5 83 Q313 55 292 35 Q271 15 243.5 4.5 Q216 -6 186 -6 Q156 -6 128.5 4.5 Q101 15 80 35 Q59 55 46.5 83 Q34 111 34 147 L34 177 L136 177 L136 151 Q136 125 150.5 110.5 Q165 96 188 96 Q211 96 223.5 110 Q236 124 236 149 L236 316 Q236 337 222.5 352 Q209 367 188 367 Q175 367 166 362.5 Q157 358 151 352 Q145 346 142 339 Q137 330 136 328 L46 328 L46 712 L338 712 Z" /><glyph glyph-name="six" unicode="6" d="M301 712 L185 413 L187 411 Q192 415 202.5 417.5 Q213 420 230 420 Q257 420 280 407 Q303 394 316 374 Q323 363 327 352 Q331 341 334 323 Q336 305 337 277.5 Q338 250 338 208 Q338 173 337 150.5 Q336 128 334 113 Q331 97 326.5 86 Q322 75 315 63 Q295 30 261.5 12 Q228 -6 186 -6 Q144 -6 111 12.5 Q78 31 58 63 Q50 75 45.5 86 Q41 97 39 113 Q36 128 35 150.5 Q34 173 34 208 Q34 241 35 262.5 Q36 284 38 300 Q40 315 44 327.5 Q48 340 53 354 L187 712 L301 712 ZM236 279 Q236 302 221 316 Q206 330 186 330 Q166 330 151 316 Q136 302 136 279 L136 147 Q136 124 151 110 Q166 96 186 96 Q206 96 221 110 Q236 124 236 147 L236 279 Z" /><glyph glyph-name="seven" unicode="7" d="M57 0 L236 616 L124 616 L124 534 L34 534 L34 712 L338 712 L338 610 L165 0 L57 0 Z" /><glyph glyph-name="eight" unicode="8" d="M236 566 Q236 587 221 601.5 Q206 616 186 616 Q166 616 151 601.5 Q136 587 136 566 L136 462 Q136 441 151 426.5 Q166 412 186 412 Q206 412 221 426.5 Q236 441 236 462 L236 566 ZM34 526 Q34 555 36 575.5 Q38 596 43 611 Q48 626 54.5 638 Q61 650 71 663 Q91 689 121 703.5 Q151 718 186 718 Q221 718 251 703.5 Q281 689 301 663 Q311 650 318 638 Q325 626 330 611 Q335 596 336.5 575.5 Q338 555 338 526 Q338 494 337 472 Q336 450 331 433 Q326 416 315.5 402.5 Q305 389 287 374 Q305 360 315.5 346 Q326 332 331 313 Q336 294 337 266.5 Q338 239 338 199 Q338 166 336.5 144.5 Q335 123 332 107 Q329 91 323.5 80 Q318 69 310 57 Q293 31 262 12.5 Q231 -6 186 -6 Q141 -6 110 12.5 Q79 31 62 57 Q54 69 48.5 80 Q43 91 40 107 Q37 123 35.5 144.5 Q34 166 34 199 Q34 239 35 266.5 Q36 294 41 313 Q46 332 56.5 346 Q67 360 85 374 Q67 389 56.5 402.5 Q46 416 41 433 Q36 450 35 472 Q34 494 34 526 ZM236 286 Q236 307 221 321.5 Q206 336 186 336 Q166 336 151 321.5 Q136 307 136 286 L136 146 Q136 125 151 110.5 Q166 96 186 96 Q206 96 221 110.5 Q236 125 236 146 L236 286 Z" /><glyph glyph-name="nine" unicode="9" d="M71 0 L187 299 L185 301 Q180 297 169.5 294.5 Q159 292 142 292 Q115 292 92 305 Q69 318 56 338 Q49 348 45 359.5 Q41 371 39 389 Q36 407 35 434.5 Q34 462 34 504 Q34 539 35 561.5 Q36 584 39 600 Q41 615 45.5 626 Q50 637 57 649 Q77 682 110.5 700 Q144 718 186 718 Q228 718 261 699.5 Q294 681 314 649 Q321 637 326 626 Q331 615 334 600 Q336 584 337 561.5 Q338 539 338 504 Q338 471 337 449.5 Q336 428 334 413 Q331 397 327.5 384.5 Q324 372 319 358 L185 0 L71 0 ZM136 433 Q136 410 151 396 Q166 382 186 382 Q206 382 221 396 Q236 410 236 433 L236 565 Q236 588 221 602 Q206 616 186 616 Q166 616 151 602 Q136 588 136 565 L136 433 Z" /><glyph glyph-name="a" unicode="a" d="M235 0 L235 52 L233 52 Q213 24 192.5 9 Q172 -6 135 -6 Q117 -6 98.5 -0.5 Q80 5 63 20 Q46 34 35.5 60.5 Q25 87 25 129 Q25 172 32 204.5 Q39 237 58 259 Q76 280 107 290.5 Q138 301 186 301 Q191 301 197 301 Q203 301 208 300 Q213 299 220 299 Q227 299 235 298 L235 351 Q235 377 224 394 Q213 411 184 411 Q164 411 147.5 398 Q131 385 126 360 L27 360 Q31 428 73 470 Q93 490 121 501.5 Q149 513 184 513 Q216 513 244 503 Q272 493 293 473 Q313 453 325 423 Q337 393 337 353 L337 0 L235 0 ZM235 218 Q218 221 207 221 Q174 221 150.5 205.5 Q127 190 127 149 Q127 120 141 102 Q155 84 180 84 Q206 84 220.5 101 Q235 118 235 149 L235 218 Z" /><glyph glyph-name="b" unicode="b" d="M42 0 L42 712 L144 712 L144 461 L146 461 Q163 486 186.5 499.5 Q210 513 240 513 Q277 513 297.5 500 Q318 487 331 467 Q341 451 344 425 Q347 399 347 344 L347 151 Q347 109 343 84 Q339 59 330 42 Q304 -6 241 -6 Q203 -6 183 9 Q163 24 144 46 L144 0 L42 0 ZM245 351 Q245 375 234.5 393 Q224 411 195 411 Q173 411 158.5 395.5 Q144 380 144 356 L144 159 Q144 131 158 113.5 Q172 96 195 96 Q221 96 233 115 Q245 134 245 165 L245 351 Z" /><glyph glyph-name="c" unicode="c" d="M150 146 Q150 122 163.5 109 Q177 96 200 96 Q229 96 238.5 113 Q248 130 250 147 L352 147 Q352 80 311 39 Q291 18 263 6 Q235 -6 200 -6 Q152 -6 118.5 14 Q85 34 67 67 Q56 87 52 113 Q48 139 48 170 L48 337 Q48 368 52 394 Q56 420 67 440 Q85 473 118.5 493 Q152 513 200 513 Q235 513 263.5 501 Q292 489 312 468 Q352 423 352 351 L250 351 Q250 382 236.5 396.5 Q223 411 200 411 Q177 411 163.5 396.5 Q150 382 150 353 L150 146 Z" /><glyph glyph-name="d" unicode="d" d="M144 165 Q144 134 156 115 Q168 96 194 96 Q217 96 231 113.5 Q245 131 245 159 L245 356 Q245 380 230.5 395.5 Q216 411 194 411 Q165 411 154.5 393 Q144 375 144 351 L144 165 ZM245 0 L245 46 Q235 35 226 25.5 Q217 16 206 9 Q195 2 181 -2 Q167 -6 148 -6 Q84 -6 59 42 Q50 59 46 84 Q42 109 42 151 L42 344 Q42 399 45 425 Q51 475 92 500 Q111 513 149 513 Q179 513 202.5 499.5 Q226 486 243 461 L245 461 L245 712 L347 712 L347 0 L245 0 Z" /><glyph glyph-name="e" unicode="e" d="M337 215 L135 215 L135 146 Q135 122 148.5 109 Q162 96 185 96 Q214 96 223.5 113 Q233 130 235 147 L337 147 Q337 80 296 39 Q276 18 248 6 Q220 -6 185 -6 Q137 -6 103.5 14 Q70 34 52 67 Q41 87 37 113 Q33 139 33 170 L33 337 Q33 368 37 394 Q41 420 52 440 Q70 473 103.5 493 Q137 513 185 513 Q220 513 248.5 501 Q277 489 297 468 Q337 423 337 355 L337 215 ZM135 295 L235 295 L235 353 Q235 382 221.5 396.5 Q208 411 185 411 Q162 411 148.5 396.5 Q135 382 135 353 L135 295 Z" /><glyph glyph-name="f" unicode="f" d="M55 0 L55 427 L5 427 L5 507 L55 507 L55 576 Q55 613 66 638.5 Q77 664 96 681 Q114 698 137.5 705 Q161 712 186 712 L233 712 L233 616 L187 616 Q157 616 157 581 L157 507 L233 507 L233 427 L157 427 L157 0 L55 0 Z" /><glyph glyph-name="g" unicode="g" d="M144 -59 Q145 -77 158.5 -93 Q172 -109 198 -109 Q223 -109 234 -93.5 Q245 -78 245 -54 L245 46 L243 46 Q226 21 202.5 7.5 Q179 -6 148 -6 Q84 -6 59 42 Q50 59 46 84 Q42 109 42 151 L42 344 Q42 399 45 425 Q51 475 92 500 Q111 513 149 513 Q168 513 181.5 509 Q195 505 206 498 Q217 491 226 481.5 Q235 472 245 461 L245 507 L347 507 L347 -62 Q347 -88 338.5 -114.5 Q330 -141 311 -162 Q292 -184 263 -197.5 Q234 -211 194 -211 Q171 -211 146 -203.5 Q121 -196 100 -178 Q78 -161 62.5 -132.5 Q47 -104 42 -59 L144 -59 ZM144 156 Q144 132 154.5 114 Q165 96 194 96 Q216 96 230.5 111.5 Q245 127 245 151 L245 348 Q245 376 231 393.5 Q217 411 194 411 Q168 411 156 392 Q144 373 144 342 L144 156 Z" /><glyph glyph-name="h" unicode="h" d="M42 0 L42 712 L144 712 L144 458 L146 458 Q162 482 184.5 497.5 Q207 513 242 513 Q261 513 280 506.5 Q299 500 314 485 Q329 470 338 446.5 Q347 423 347 389 L347 0 L245 0 L245 351 Q245 379 232 395 Q219 411 195 411 Q166 411 155 393 Q144 375 144 341 L144 0 L42 0 Z" /><glyph glyph-name="i" unicode="i" d="M42 0 L42 507 L144 507 L144 0 L42 0 ZM42 610 L42 712 L144 712 L144 610 L42 610 Z" /><glyph glyph-name="j" unicode="j" d="M42 507 L144 507 L144 -54 Q144 -129 97 -167 Q50 -205 -22 -205 L-22 -109 Q15 -109 29 -90 Q37 -79 39.5 -61.5 Q42 -44 42 -16 L42 507 ZM42 610 L42 712 L144 712 L144 610 L42 610 Z" /><glyph glyph-name="k" unicode="k" d="M42 0 L42 712 L144 712 L144 286 L146 286 L269 507 L371 507 L250 301 L396 0 L285 0 L193 219 L144 142 L144 0 L42 0 Z" /><glyph glyph-name="l" unicode="l" d="M36 712 L138 712 L138 143 Q138 114 148.5 103.5 Q159 93 188 90 L188 -6 Q153 -6 125 -0.5 Q97 5 77 21 Q57 36 46.5 63.5 Q36 91 36 136 L36 712 Z" /><glyph glyph-name="m" unicode="m" d="M42 0 L42 507 L144 507 L144 458 L146 458 Q162 482 184.5 497.5 Q207 513 242 513 Q275 513 297 497 Q319 481 333 462 Q352 483 375 498 Q398 513 439 513 Q458 513 478 506.5 Q498 500 514 485 Q530 470 540 446.5 Q550 423 550 389 L550 0 L448 0 L448 351 Q448 379 435 395 Q422 411 398 411 Q369 411 358 393 Q347 375 347 341 L347 0 L245 0 L245 351 Q245 379 232 395 Q219 411 195 411 Q166 411 155 393 Q144 375 144 341 L144 0 L42 0 Z" /><glyph glyph-name="n" unicode="n" d="M42 0 L42 507 L144 507 L144 458 L146 458 Q162 482 184.5 497.5 Q207 513 242 513 Q261 513 280 506.5 Q299 500 314 485 Q329 470 338 446.5 Q347 423 347 389 L347 0 L245 0 L245 351 Q245 379 232 395 Q219 411 195 411 Q166 411 155 393 Q144 375 144 341 L144 0 L42 0 Z" /><glyph glyph-name="o" unicode="o" d="M33 337 Q33 368 37 394 Q41 420 52 440 Q70 473 103.5 493 Q137 513 185 513 Q233 513 266.5 493 Q300 473 318 440 Q329 420 333 394 Q337 368 337 337 L337 170 Q337 139 333 113 Q329 87 318 67 Q300 34 266.5 14 Q233 -6 185 -6 Q137 -6 103.5 14 Q70 34 52 67 Q41 87 37 113 Q33 139 33 170 L33 337 ZM135 154 Q135 125 148.5 110.5 Q162 96 185 96 Q208 96 221.5 110.5 Q235 125 235 154 L235 353 Q235 382 221.5 396.5 Q208 411 185 411 Q162 411 148.5 396.5 Q135 382 135 353 L135 154 Z" /><glyph glyph-name="p" unicode="p" d="M42 -205 L42 507 L144 507 L144 461 Q163 483 183 498 Q203 513 241 513 Q304 513 330 465 Q339 448 343 423 Q347 398 347 356 L347 163 Q347 107 344 82 Q338 32 298 7 Q278 -6 240 -6 Q210 -6 186.5 7.5 Q163 21 146 46 L144 46 L144 -205 L42 -205 ZM245 342 Q245 373 233 392 Q221 411 195 411 Q172 411 158 393.5 Q144 376 144 348 L144 151 Q144 127 158.5 111.5 Q173 96 195 96 Q224 96 234.5 114 Q245 132 245 156 L245 342 Z" /><glyph glyph-name="q" unicode="q" d="M245 -205 L245 46 L243 46 Q226 21 202.5 7.5 Q179 -6 149 -6 Q112 -6 91.5 7 Q71 20 58 40 Q48 56 45 82 Q42 107 42 163 L42 356 Q42 398 46 423 Q50 448 59 465 Q84 513 148 513 Q167 513 181 509 Q195 505 206 498 Q217 491 226 481.5 Q235 472 245 461 L245 507 L347 507 L347 -205 L245 -205 ZM144 156 Q144 132 154.5 114 Q165 96 194 96 Q216 96 230.5 111.5 Q245 127 245 151 L245 348 Q245 376 231 393.5 Q217 411 194 411 Q168 411 156 392 Q144 373 144 342 L144 156 Z" /><glyph glyph-name="r" unicode="r" d="M42 0 L42 507 L144 507 L144 453 Q175 481 205 497 Q235 513 279 513 L279 405 Q264 411 248 411 Q232 411 213.5 405.5 Q195 400 180 387 Q164 374 154 353 Q144 332 144 301 L144 0 L42 0 Z" /><glyph glyph-name="s" unicode="s" d="M227 365 Q226 391 210.5 404 Q195 417 175 417 Q151 417 138 401.5 Q125 386 125 366 Q125 352 132 338.5 Q139 325 168 314 L228 290 Q285 268 306.5 230 Q328 192 328 147 Q328 115 316.5 87.5 Q305 60 285 39 Q265 18 237 6 Q209 -6 176 -6 Q114 -6 72 33 Q51 52 38 80.5 Q25 109 24 147 L120 147 Q123 126 134.5 108 Q146 90 175 90 Q197 90 214.5 104.5 Q232 119 232 145 Q232 166 221 181 Q210 196 181 207 L132 225 Q84 243 56.5 278.5 Q29 314 29 365 Q29 397 41 424.5 Q53 452 74 472 Q94 492 121 502.5 Q148 513 179 513 Q210 513 236.5 502 Q263 491 282 471 Q301 451 312 423.5 Q323 396 323 365 L227 365 Z" /><glyph glyph-name="t" unicode="t" d="M42 507 L42 661 L144 661 L144 507 L207 507 L207 427 L144 427 L144 146 Q144 128 147.5 118 Q151 108 159 103 Q167 98 178.5 97 Q190 96 207 96 L207 0 L165 0 Q130 0 106.5 11 Q83 22 69 39 Q55 56 48.5 77.5 Q42 99 42 119 L42 427 L-9 427 L-9 507 L42 507 Z" /><glyph glyph-name="u" unicode="u" d="M347 507 L347 0 L245 0 L245 49 L243 49 Q227 25 204.5 9.5 Q182 -6 147 -6 Q128 -6 109 0.5 Q90 7 75 22 Q60 37 51 60.5 Q42 84 42 118 L42 507 L144 507 L144 156 Q144 128 157 112 Q170 96 194 96 Q223 96 234 114 Q245 132 245 166 L245 507 L347 507 Z" /><glyph glyph-name="v" unicode="v" d="M353 507 L221 0 L131 0 L-1 507 L107 507 L175 183 L177 183 L245 507 L353 507 Z" /><glyph glyph-name="w" unicode="w" d="M535 507 L415 0 L325 0 L269 301 L267 301 L211 0 L121 0 L1 507 L109 507 L171 192 L173 192 L230 507 L310 507 L364 192 L366 192 L427 507 L535 507 Z" /><glyph glyph-name="x" unicode="x" d="M-11 0 L114 259 L-5 507 L103 507 L166 363 L229 507 L337 507 L216 259 L343 0 L235 0 L166 155 L97 0 L-11 0 Z" /><glyph glyph-name="y" unicode="y" d="M-1 507 L107 507 L177 191 L179 191 L248 507 L353 507 L207 -88 Q199 -122 184.5 -144 Q170 -166 151 -180 Q132 -194 110.5 -199.5 Q89 -205 66 -205 L38 -205 L38 -109 L61 -109 Q76 -109 87 -105 Q98 -101 107 -87 Q115 -73 122 -47.5 Q129 -22 138 23 L-1 507 Z" /><glyph glyph-name="z" unicode="z" d="M17 0 L17 81 L182 417 L30 417 L30 507 L298 507 L298 426 L133 96 L298 96 L298 0 L17 0 Z" /></font>
</defs>
</svg>
